<svg width="23" height="24" viewBox="0 0 23 24" fill="none" xmlns="http://www.w3.org/2000/svg">
<g id="credit-card">
<path id="credit-card_2" d="M17.25 4.57275H5.75C3.43275 4.57275 2.15625 5.84925 2.15625 8.1665V15.8332C2.15625 18.1504 3.43275 19.4269 5.75 19.4269H17.25C19.5672 19.4269 20.8438 18.1504 20.8438 15.8332V8.1665C20.8438 5.84925 19.5672 4.57275 17.25 4.57275ZM19.4062 15.8332C19.4062 17.3445 18.7613 17.9894 17.25 17.9894H5.75C4.23871 17.9894 3.59375 17.3445 3.59375 15.8332V10.8019H19.4062V15.8332ZM19.4062 9.36442H3.59375V8.1665C3.59375 6.65521 4.23871 6.01025 5.75 6.01025H17.25C18.7613 6.01025 19.4062 6.65521 19.4062 8.1665V9.36442ZM5.98958 14.8748C5.98958 14.4781 6.31158 14.1561 6.70833 14.1561H9.58333C9.98008 14.1561 10.3021 14.4781 10.3021 14.8748C10.3021 15.2716 9.98008 15.5936 9.58333 15.5936H6.70833C6.31158 15.5936 5.98958 15.2716 5.98958 14.8748Z" fill="white"/>
</g>
</svg>
