<svg width="80" height="60" viewBox="0 0 80 60" fill="none" xmlns="http://www.w3.org/2000/svg">
<g id="credit-card (2) 1" clip-path="url(#clip0_4454_10575)">
<g id="Group">
<g id="Group_2">
<path id="Vector" d="M1.55469 18.7725H70.2904V29.7097H1.55469V18.7725Z" fill="#E27B3B"/>
</g>
<g id="Group_3">
<path id="Vector_2" d="M72.7335 -0.012207H19.1661C15.4242 -0.012207 12.3906 3.02465 12.3906 6.77071V9.28656H63.5137C67.2555 9.28656 70.2891 12.3234 70.2891 16.0695V47.5418H72.7337C76.4756 47.5418 79.5092 44.505 79.5092 40.7589V6.77071C79.509 3.02465 76.4756 -0.012207 72.7335 -0.012207Z" fill="#E27B3B"/>
</g>
<g id="Group_4">
<path id="Vector_3" d="M63.5115 7.73389H8.33388C3.73963 7.73389 0.00195312 11.4717 0.00195312 16.066V51.6808C0.00195312 56.2751 3.73963 60.0129 8.33388 60.0129H63.5114C68.1056 60.0129 71.8433 56.2752 71.8433 51.6808V16.066C71.8435 11.4717 68.1058 7.73389 63.5115 7.73389ZM68.7377 51.6808C68.7377 54.5625 66.3931 56.9071 63.5115 56.9071H8.33388C5.45232 56.9071 3.10775 54.5625 3.10775 51.6808V16.066C3.10775 13.1843 5.45232 10.8397 8.33388 10.8397H63.5114C66.3931 10.8397 68.7375 13.1843 68.7375 16.066L68.7377 51.6808Z" fill="#313131"/>
<path id="Vector_4" d="M17.5425 36.291C13.1983 36.291 9.66406 39.8465 9.66406 44.2167C9.66406 48.5869 13.1985 52.1423 17.5425 52.1423C21.8866 52.1423 25.421 48.5869 25.421 44.2167C25.421 39.8465 21.8868 36.291 17.5425 36.291ZM17.5425 49.0364C14.9108 49.0364 12.7699 46.8743 12.7699 44.2167C12.7699 41.5591 14.9108 39.3968 17.5425 39.3968C20.1742 39.3968 22.3152 41.5589 22.3152 44.2167C22.3154 46.8742 20.1744 49.0364 17.5425 49.0364Z" fill="#313131"/>
<path id="Vector_5" d="M60.6291 49.0366H34.5275C33.67 49.0366 32.9746 49.7319 32.9746 50.5895C32.9746 51.4472 33.67 52.1424 34.5275 52.1424H60.6291C61.4866 52.1424 62.182 51.4472 62.182 50.5895C62.182 49.7319 61.4868 49.0366 60.6291 49.0366Z" fill="#313131"/>
<path id="Vector_6" d="M60.6295 42.1133H48.547C47.6895 42.1133 46.9941 42.8085 46.9941 43.6662C46.9941 44.5238 47.6895 45.2191 48.547 45.2191H60.6295C61.4871 45.2191 62.1824 44.5238 62.1824 43.6662C62.1824 42.8085 61.4872 42.1133 60.6295 42.1133Z" fill="#313131"/>
</g>
</g>
</g>
<defs>
<clipPath id="clip0_4454_10575">
<rect width="79.5085" height="60" fill="white"/>
</clipPath>
</defs>
</svg>
