<svg width="20" height="20" viewBox="0 0 20 20" fill="none" xmlns="http://www.w3.org/2000/svg">
<g id="exclamation-circle">
<path id="exclamation-circle_2" d="M9.99935 18.9587C5.05935 18.9587 1.04102 14.9403 1.04102 10.0003C1.04102 5.06033 5.05935 1.04199 9.99935 1.04199C14.9393 1.04199 18.9577 5.06033 18.9577 10.0003C18.9577 14.9403 14.9393 18.9587 9.99935 18.9587ZM9.99935 2.29199C5.74852 2.29199 2.29102 5.74949 2.29102 10.0003C2.29102 14.2512 5.74852 17.7087 9.99935 17.7087C14.2502 17.7087 17.7077 14.2512 17.7077 10.0003C17.7077 5.74949 14.2502 2.29199 9.99935 2.29199ZM10.8494 12.917C10.8494 12.457 10.4769 12.0837 10.016 12.0837H10.0077C9.54769 12.0837 9.17843 12.457 9.17843 12.917C9.17843 13.377 9.55603 13.7503 10.016 13.7503C10.476 13.7503 10.8494 13.377 10.8494 12.917ZM10.6243 10.0595V6.25033C10.6243 5.90533 10.3443 5.62533 9.99935 5.62533C9.65435 5.62533 9.37435 5.90533 9.37435 6.25033V10.0595C9.37435 10.4045 9.65435 10.6845 9.99935 10.6845C10.3443 10.6845 10.6243 10.4045 10.6243 10.0595Z" fill="#E1760A"/>
</g>
</svg>
