<svg width="82" height="82" viewBox="0 0 82 82" fill="none" xmlns="http://www.w3.org/2000/svg">
<g id="fi_11683365">
<path id="Vector" d="M41.6406 53.8125C41.4826 53.8125 41.3246 53.7967 41.1824 53.7492C25.5383 48.9679 17.9375 40.4187 17.9375 27.5791V9.37246C17.9375 8.70752 18.3642 8.10591 18.9962 7.88427L41.1192 0.0949912C41.451 -0.0316637 41.8303 -0.0316637 42.1621 0.0949912L64.285 7.88427C64.9171 8.10591 65.3438 8.70752 65.3438 9.37246V27.5791C65.3438 40.4187 57.7429 48.9679 42.0989 53.7492C41.9409 53.7967 41.7986 53.8125 41.6406 53.8125ZM21.0979 10.4807V27.5633C21.0979 38.8514 27.6242 46.1657 41.6406 50.567C55.6571 46.1815 62.1833 38.8514 62.1833 27.5633V10.4807L41.6406 3.24553L21.0979 10.4807Z" fill="#809D3A"/>
<path id="Vector_2" d="M37.0871 34.5938C36.6912 34.5938 36.3104 34.4335 36.0059 34.129L29.9142 27.7188C29.3203 27.0938 29.3203 26.0841 29.9142 25.4591C30.5081 24.8341 31.4676 24.8341 32.0615 25.4591L37.0719 30.7316L51.2197 15.8437C51.8137 15.2188 52.7731 15.2188 53.367 15.8437C53.961 16.4688 53.961 17.4784 53.367 18.1034L38.1379 34.129C37.8333 34.4495 37.4526 34.5938 37.0567 34.5938H37.0871Z" fill="#809D3A"/>
<path id="Vector_3" d="M73.0312 79.4375H8.96875C6.13719 79.4375 3.84375 77.1441 3.84375 74.3125V61.5C3.84375 58.6684 6.13719 56.375 8.96875 56.375H73.0312C75.8628 56.375 78.1562 58.6684 78.1562 61.5V74.3125C78.1562 77.1441 75.8628 79.4375 73.0312 79.4375Z" fill="#809D3A"/>
<g id="Group">
<path id="Vector_4" d="M65.8673 67.9064L68.8013 64.9723C69.301 64.4727 69.301 63.6655 68.8013 63.1658C68.3016 62.6661 67.4945 62.6661 66.9948 63.1658L64.0607 66.0998L61.1266 63.1658C60.627 62.6661 59.8198 62.6661 59.3201 63.1658C58.8204 63.6655 58.8204 64.4727 59.3201 64.9723L62.2541 67.9064L59.3201 70.8405C58.8204 71.3402 58.8204 72.1473 59.3201 72.647C59.5763 72.9033 59.8966 73.0186 60.2298 73.0186C60.5629 73.0186 60.8832 72.8905 61.1395 72.647L64.0735 69.713L67.0076 72.647C67.2638 72.9033 67.5841 73.0186 67.9173 73.0186C68.2504 73.0186 68.5707 72.8905 68.827 72.647C69.3266 72.1473 69.3266 71.3402 68.827 70.8405L65.8929 67.9064H65.8673Z" fill="#313131"/>
<path id="Vector_5" d="M53.44 63.1531C52.9403 62.6534 52.1331 62.6534 51.6334 63.1531L48.6994 66.0871L45.7653 63.1531C45.2656 62.6534 44.4584 62.6534 43.9587 63.1531C43.4591 63.6528 43.4591 64.46 43.9587 64.9596L46.8928 67.8937L43.9587 70.8278C43.4591 71.3275 43.4591 72.1346 43.9587 72.6343C44.215 72.8906 44.5353 73.0059 44.8684 73.0059C45.2016 73.0059 45.5219 72.8778 45.7781 72.6343L48.7122 69.7003L51.6462 72.6343C51.9025 72.8906 52.2228 73.0059 52.5559 73.0059C52.8891 73.0059 53.2094 72.8778 53.4656 72.6343C53.9653 72.1346 53.9653 71.3275 53.4656 70.8278L50.5316 67.8937L53.4656 64.9596C53.9653 64.46 53.9653 63.6528 53.4656 63.1531H53.44Z" fill="#313131"/>
<path id="Vector_6" d="M38.065 63.1531C37.5653 62.6534 36.7581 62.6534 36.2584 63.1531L33.3244 66.0871L30.3903 63.1531C29.8906 62.6534 29.0834 62.6534 28.5837 63.1531C28.0841 63.6528 28.0841 64.46 28.5837 64.9596L31.5178 67.8937L28.5837 70.8278C28.0841 71.3275 28.0841 72.1346 28.5837 72.6343C28.84 72.8906 29.1603 73.0059 29.4934 73.0059C29.8266 73.0059 30.1469 72.8778 30.4031 72.6343L33.3372 69.7003L36.2712 72.6343C36.5275 72.8906 36.8478 73.0059 37.1809 73.0059C37.5141 73.0059 37.8344 72.8778 38.0906 72.6343C38.5903 72.1346 38.5903 71.3275 38.0906 70.8278L35.1566 67.8937L38.0906 64.9596C38.5903 64.46 38.5903 63.6528 38.0906 63.1531H38.065Z" fill="#313131"/>
<path id="Vector_7" d="M22.69 63.1531C22.1903 62.6534 21.3831 62.6534 20.8834 63.1531L17.9494 66.0871L15.0153 63.1531C14.5156 62.6534 13.7084 62.6534 13.2087 63.1531C12.7091 63.6528 12.7091 64.46 13.2087 64.9596L16.1428 67.8937L13.2087 70.8278C12.7091 71.3275 12.7091 72.1346 13.2087 72.6343C13.465 72.8906 13.7853 73.0059 14.1184 73.0059C14.4516 73.0059 14.7719 72.8778 15.0281 72.6343L17.9622 69.7003L20.8962 72.6343C21.1525 72.8906 21.4728 73.0059 21.8059 73.0059C22.1391 73.0059 22.4594 72.8778 22.7156 72.6343C23.2153 72.1346 23.2153 71.3275 22.7156 70.8278L19.7816 67.8937L22.7156 64.9596C23.2153 64.46 23.2153 63.6528 22.7156 63.1531H22.69Z" fill="#313131"/>
</g>
</g>
</svg>
