<svg width="76" height="76" viewBox="0 0 76 76" fill="none" xmlns="http://www.w3.org/2000/svg">
<g id="fi_12320044">
<g id="Group">
<g id="Group_2">
<g id="Group_3">
<path id="Vector" d="M33.795 66.9459H26.2758C25.374 66.9459 24.6429 66.2149 24.6429 65.3131C24.6429 64.4114 25.374 63.6803 26.2758 63.6803H33.795C34.6968 63.6803 35.4278 64.4114 35.4278 65.3131C35.4278 66.2149 34.6968 66.9459 33.795 66.9459Z" fill="#313131"/>
</g>
<g id="Group_4">
<path id="Vector_2" d="M42.84 66.9453C41.7083 66.9723 40.8729 65.724 41.3334 64.6891C41.8672 63.3559 43.8147 63.3562 44.3482 64.6891C44.8098 65.7241 43.9719 66.9734 42.84 66.9453Z" fill="#313131"/>
</g>
<g id="Group_5">
<path id="Vector_3" d="M17.1633 66.9454C16.0309 66.9733 15.1948 65.7248 15.6552 64.6891C16.1891 63.3563 18.1362 63.3558 18.67 64.6891C19.1301 65.7237 18.2949 66.973 17.1633 66.9454Z" fill="#313131"/>
</g>
</g>
<path id="Vector_4" d="M55.0243 19.3698V6.68043C55.0243 2.99695 52.0275 0 48.3438 0H11.6597C7.97611 0 4.97931 2.99695 4.97931 6.68043V69.3196C4.97931 73.003 7.97611 76 11.6597 76H48.3438C52.0275 76 55.0243 73.003 55.0243 69.3196V56.6378H51.7586V69.3196C51.7586 71.2025 50.2268 72.7344 48.3438 72.7344H11.6597C9.77681 72.7344 8.24493 71.2025 8.24493 69.3196V12.3197H51.7586V19.3698H55.0243ZM8.24493 9.05409V6.68043C8.24493 4.7975 9.77681 3.26562 11.6597 3.26562H48.3438C50.2268 3.26562 51.7586 4.7975 51.7586 6.68043V9.05409H8.24493Z" fill="#313131"/>
<g id="Group_6">
<g id="Group_7">
<path id="Vector_5" d="M53.4459 58.2977C53.1942 58.2977 52.9426 58.2395 52.7116 58.1231C43.3167 53.3921 39.2421 45.7888 37.4782 40.2435C35.5766 34.2652 35.8837 29.4217 35.8977 29.2185C35.9336 28.6976 36.2164 28.2254 36.6584 27.948L52.5777 17.9525C53.1084 17.619 53.7833 17.6191 54.3141 17.9525L70.2335 27.948C70.6757 28.2254 70.9583 28.6977 70.9942 29.2185C71.0082 29.4217 71.3153 34.2652 69.4137 40.2435C67.6499 45.7888 63.5752 53.3921 54.1803 58.1231C53.9493 58.2396 53.6977 58.2977 53.4459 58.2977Z" fill="#00A652"/>
</g>
<g id="Group_8">
<path id="Vector_6" d="M52.2759 42.5168C51.8428 42.5168 51.4276 42.3448 51.1214 42.0386L47.6934 38.6104C47.0558 37.9727 47.0558 36.9389 47.6934 36.3012C48.3311 35.6635 49.3649 35.6635 50.0026 36.3012L52.2761 38.5746L56.8895 33.9614C57.5272 33.3237 58.5609 33.3235 59.1988 33.9614C59.8363 34.599 59.8363 35.6329 59.1988 36.2706L53.4308 42.0384C53.1244 42.3448 52.7091 42.5168 52.2759 42.5168Z" fill="#313131"/>
</g>
</g>
</g>
</g>
</svg>
