<svg width="124" height="124" viewBox="0 0 124 124" fill="none" xmlns="http://www.w3.org/2000/svg">
<g id="fi_6044516" clip-path="url(#clip0_6757_30064)">
<g id="Group">
<g id="Group_2">
<g id="Group_3">
<g id="Group_4">
<g id="Group_5">
<g id="Group_6">
<path id="Vector" d="M17.2129 81.4316H86.5366V95.4637H17.2129V81.4316Z" fill="#809D3A"/>
</g>
</g>
<path id="Vector_2" d="M92.5332 93.0419H88.9585V57.7767C88.9585 56.4391 87.874 55.3549 86.5366 55.3549C85.1993 55.3549 84.1147 56.4391 84.1147 57.7767V93.0419H19.635V57.7767C19.635 40.0166 34.0837 25.568 51.8435 25.568H51.9062C60.0963 25.568 67.9017 28.6447 73.8843 34.2315C74.8617 35.1443 76.3943 35.092 77.3073 34.1145C78.2204 33.1371 78.1678 31.6045 77.1904 30.6915C72.9884 26.7673 68.0047 23.9196 62.616 22.2968L63.9585 14.2394C64.5496 10.6902 63.5542 7.07914 61.2273 4.33225C58.895 1.57906 55.4863 0 51.8748 0C48.2637 0 44.8549 1.57906 42.5227 4.33201C40.1957 7.0789 39.2001 10.6899 39.7915 14.2394L41.1349 22.3018C25.9086 26.9068 14.7915 41.068 14.7915 57.7767V93.0419H11.2168C9.87944 93.0419 8.79492 94.1262 8.79492 95.4638V108.81C8.79492 110.148 9.87944 111.232 11.2168 111.232H39.6191V111.753C39.6191 118.506 45.1131 124 51.866 124H51.8837C58.6369 124 64.1307 118.506 64.1307 111.753V111.232H92.5332C93.8705 111.232 94.9551 110.148 94.9551 108.81V95.4638C94.9551 94.1262 93.8708 93.0419 92.5332 93.0419ZM44.5694 13.4431C44.2124 11.301 44.8135 9.12127 46.2185 7.46301C47.6287 5.79845 49.6902 4.84375 51.8748 4.84375C54.0593 4.84375 56.121 5.79845 57.5313 7.46301C58.9362 9.12151 59.5371 11.3012 59.1803 13.4431L57.8871 21.2057C55.9246 20.887 53.9256 20.7242 51.9062 20.7242H51.8435C49.8079 20.7242 47.8101 20.8894 45.8629 21.2067L44.5694 13.4431ZM59.2871 111.753C59.2871 115.835 55.966 119.156 51.884 119.156H51.8663C47.7842 119.156 44.4631 115.835 44.4631 111.753V111.232H59.2874L59.2871 111.753ZM90.1113 106.388H13.6384V97.8857H90.1113V106.388Z" fill="#313131"/>
</g>
</g>
</g>
<g id="Group_7">
<path id="Vector_3" d="M88.4559 71.9468C103.23 71.9468 115.207 59.9917 115.207 45.2444C115.207 30.4971 103.23 18.542 88.4559 18.542C73.6818 18.542 61.7051 30.4971 61.7051 45.2444C61.7051 59.9917 73.6818 71.9468 88.4559 71.9468Z" fill="#809D3A"/>
<g id="Group_8">
<g id="Group_9">
<path id="Vector_4" d="M87.0131 52.5645C86.4732 52.5645 85.931 52.385 85.4819 52.0183L79.7121 47.3056C78.6762 46.4594 78.5224 44.9339 79.3684 43.8978C80.2146 42.8619 81.7404 42.7082 82.7762 43.5544L86.7416 46.7931L93.8524 38.7426C94.7379 37.7399 96.2687 37.645 97.2709 38.5307C98.2736 39.4161 98.3683 40.9467 97.4828 41.9491L88.8292 51.7461C88.3519 52.2864 87.6844 52.5645 87.0131 52.5645Z" fill="#313131"/>
</g>
</g>
</g>
</g>
</g>
<defs>
<clipPath id="clip0_6757_30064">
<rect width="124" height="124" fill="white"/>
</clipPath>
</defs>
</svg>
