<svg width="124" height="124" viewBox="0 0 124 124" fill="none" xmlns="http://www.w3.org/2000/svg">
<g id="fi_8591834" clip-path="url(#clip0_6757_30174)">
<g id="Group">
<path id="Vector" fill-rule="evenodd" clip-rule="evenodd" d="M62 24.2188C50.033 24.2188 40.2031 34.0489 40.2031 46.0156V77.9844C40.2031 89.9513 50.0333 99.7812 62.0002 99.7812C73.967 99.7812 83.7971 89.9511 83.7971 77.9844V46.0156C83.7971 34.0489 73.967 24.2188 62 24.2188Z" fill="#809D3A"/>
<g id="Group_2">
<path id="Vector_2" d="M121.578 0H99.7812C98.4439 0 97.3594 1.08452 97.3594 2.42188C97.3594 3.75923 98.4439 4.84375 99.7812 4.84375H119.156V24.2188C119.156 25.5561 120.241 26.6406 121.578 26.6406C122.915 26.6406 124 25.5561 124 24.2188V2.42188C124 1.08452 122.915 0 121.578 0Z" fill="#313131"/>
<path id="Vector_3" d="M2.42188 26.6406C3.75923 26.6406 4.84375 25.5561 4.84375 24.2188V4.84375H24.2188C25.5561 4.84375 26.6406 3.75923 26.6406 2.42188C26.6406 1.08452 25.5561 0 24.2188 0H2.42188C1.08452 0 0 1.08452 0 2.42188V24.2188C0 25.5561 1.08452 26.6406 2.42188 26.6406Z" fill="#313131"/>
<path id="Vector_4" d="M121.578 97.3594C120.241 97.3594 119.156 98.4439 119.156 99.7812V119.156H99.7812C98.4439 119.156 97.3594 120.241 97.3594 121.578C97.3594 122.915 98.4439 124 99.7812 124H121.578C122.915 124 124 122.915 124 121.578V99.7812C124 98.4439 122.915 97.3594 121.578 97.3594Z" fill="#313131"/>
<path id="Vector_5" d="M24.2188 119.156H4.84375V99.7812C4.84375 98.4439 3.75923 97.3594 2.42188 97.3594C1.08452 97.3594 0 98.4439 0 99.7812V121.578C0 122.915 1.08452 124 2.42188 124H24.2188C25.5561 124 26.6406 122.915 26.6406 121.578C26.6406 120.241 25.5561 119.156 24.2188 119.156Z" fill="#313131"/>
<path id="Vector_6" d="M118.886 59.3359C120.223 59.3359 121.308 58.2514 121.308 56.9141C121.308 55.5767 120.223 54.4922 118.886 54.4922H75.3203V46.0156C75.3203 38.6708 69.3448 32.6953 61.9997 32.6953C54.6547 32.6953 48.6792 38.6708 48.6792 46.0156C48.6792 47.353 49.7637 48.4375 51.1011 48.4375C52.4384 48.4375 53.5229 47.353 53.5229 46.0156C53.5229 41.3416 57.3255 37.5391 61.9997 37.5391C66.674 37.5391 70.4765 41.3416 70.4765 46.0156V54.4922H64.4216V46.0156C64.4216 44.6783 63.3371 43.5938 61.9997 43.5938C60.6624 43.5938 59.5779 44.6783 59.5779 46.0156V54.4922H31.7261V46.0156C31.7261 37.9656 34.8849 30.373 40.6211 24.6372C46.3568 18.901 53.9494 15.7422 61.9995 15.7422C63.3369 15.7422 64.4214 14.6577 64.4214 13.3203C64.4214 11.983 63.3369 10.8984 61.9995 10.8984C42.6359 10.8984 26.8823 26.652 26.8823 46.0156V54.4922H5.11328C3.77592 54.4922 2.69141 55.5767 2.69141 56.9141C2.69141 58.2514 3.77592 59.3359 5.11328 59.3359H26.8823V67.0862C26.8823 68.4235 27.9668 69.5081 29.3042 69.5081C30.6415 69.5081 31.7261 68.4235 31.7261 67.0862V59.3359H59.5779V72.5555C59.5779 74.2249 58.2199 75.5828 56.5505 75.5828C54.8811 75.5828 53.5229 74.2249 53.5229 72.5555V68.4485C53.5229 67.1111 52.4384 66.0266 51.1011 66.0266C49.7637 66.0266 48.6792 67.1111 48.6792 68.4485V72.5555C48.6792 76.8957 52.2103 80.4266 56.5505 80.4266C60.8908 80.4266 64.4216 76.8957 64.4216 72.5555V59.3359H70.4765V63.6956C70.4765 65.0329 71.5611 66.1174 72.8984 66.1174C74.2358 66.1174 75.3203 65.0329 75.3203 63.6956V59.3359H92.2732V77.9846C92.2732 86.0347 89.1141 93.627 83.3781 99.363C77.6419 105.099 70.0498 108.258 61.9997 108.258C60.6624 108.258 59.5779 109.343 59.5779 110.68C59.5779 112.017 60.6624 113.102 61.9997 113.102C81.3634 113.102 97.1169 97.3482 97.1169 77.9846V59.3359H118.886Z" fill="#313131"/>
<path id="Vector_7" d="M72.0861 17.4831C84.1613 21.7865 92.2743 33.2528 92.2743 46.0156C92.2743 47.353 93.3588 48.4375 94.6962 48.4375C96.0336 48.4375 97.1181 47.353 97.1181 46.0156C97.1181 31.2098 87.712 17.9098 73.7121 12.9205C72.4515 12.4715 71.0667 13.129 70.6177 14.3886C70.1689 15.6487 70.826 17.034 72.0861 17.4831Z" fill="#313131"/>
<path id="Vector_8" d="M51.9146 106.517C39.8396 102.213 31.7266 90.7469 31.7266 77.9844C31.7266 76.647 30.642 75.5625 29.3047 75.5625C27.9673 75.5625 26.8828 76.647 26.8828 77.9844C26.8828 92.7903 36.2889 106.09 50.2885 111.08C50.5574 111.175 50.8318 111.221 51.1016 111.221C52.0967 111.221 53.0296 110.602 53.383 109.611C53.8317 108.352 53.1747 106.966 51.9146 106.517Z" fill="#313131"/>
<path id="Vector_9" d="M62 91.3047C69.3448 91.3047 75.3203 85.3292 75.3203 77.9846L75.3206 74.594C75.3206 73.2564 74.2363 72.1719 72.8989 72.1719C71.5616 72.1719 70.4768 73.2561 70.4768 74.5935L70.4766 77.9844C70.4766 82.6584 66.674 86.4609 62 86.4609C60.6626 86.4609 59.5781 87.5455 59.5781 88.8828C59.5781 90.2202 60.6626 91.3047 62 91.3047Z" fill="#313131"/>
</g>
</g>
</g>
<defs>
<clipPath id="clip0_6757_30174">
<rect width="124" height="124" fill="white"/>
</clipPath>
</defs>
</svg>
