<svg width="25" height="24" viewBox="0 0 25 24" fill="none" xmlns="http://www.w3.org/2000/svg">
<g id="lock">
<path id="lock_2" d="M17.25 8.30396V7C17.25 4.381 15.119 2.25 12.5 2.25C9.881 2.25 7.75 4.381 7.75 7V8.30396C5.812 8.56096 4.75 9.846 4.75 12V18C4.75 20.418 6.082 21.75 8.5 21.75H16.5C18.918 21.75 20.25 20.418 20.25 18V12C20.25 9.847 19.188 8.56195 17.25 8.30396ZM12.5 3.75C14.292 3.75 15.75 5.208 15.75 7V8.25H9.25V7C9.25 5.208 10.708 3.75 12.5 3.75ZM18.75 18C18.75 19.577 18.077 20.25 16.5 20.25H8.5C6.923 20.25 6.25 19.577 6.25 18V12C6.25 10.423 6.923 9.75 8.5 9.75H16.5C18.077 9.75 18.75 10.423 18.75 12V18ZM13.77 14C13.77 14.412 13.558 14.7601 13.25 14.9871V17C13.25 17.414 12.914 17.75 12.5 17.75C12.086 17.75 11.75 17.414 11.75 17V14.9619C11.462 14.7329 11.2649 14.395 11.2649 14C11.2649 13.31 11.82 12.75 12.51 12.75H12.52C13.21 12.75 13.77 13.31 13.77 14Z" fill="white"/>
</g>
</svg>
