<svg width="72" height="72" viewBox="0 0 72 72" fill="none" xmlns="http://www.w3.org/2000/svg">
<g id="password (1) 1" clip-path="url(#clip0_6016_14468)">
<g id="Group">
<g id="Group_2">
<path id="Vector" d="M9.5332 23.5396H62.4727V46.6525H9.5332V23.5396Z" fill="#8C508F"/>
</g>
<g id="Group_3">
<path id="Vector_2" d="M62.7233 13.0094C56.8292 11.9422 52.4282 7.13039 52.0207 1.30809C51.9692 0.571359 51.3565 0 50.6179 0H21.3882C20.6496 0 20.0369 0.571359 19.9853 1.30809C19.5779 7.13039 15.1769 11.9422 9.28261 13.0094C8.61352 13.1304 8.12695 13.713 8.12695 14.3931V47.8227C8.12695 54.0301 11.6202 59.6766 17.2435 62.5588L35.3617 71.8453C35.563 71.9484 35.783 72.0001 36.003 72.0001C36.2231 72.0001 36.4431 71.9485 36.6444 71.8453L54.7626 62.5588C60.3857 59.6766 63.879 54.0302 63.879 47.8229V14.3931C63.879 13.7132 63.3926 13.1306 62.7233 13.0094ZM61.0665 47.8227C61.0665 52.9698 58.1594 57.6572 53.4796 60.0558L36.003 69.0135L18.5265 60.0558C13.8467 57.6572 10.9396 52.9698 10.9396 47.8227V15.5243C17.0828 13.9469 21.6822 8.94332 22.6431 2.8125H49.363C50.324 8.94332 54.9234 13.9469 61.0666 15.5243V47.8227H61.0665Z" fill="#313131"/>
<path id="Vector_3" d="M17.8828 37.5222C18.1575 37.7968 18.5173 37.9341 18.8772 37.9341C19.2371 37.9341 19.5971 37.7968 19.8716 37.5222L20.3097 37.084L20.7479 37.5222C21.0226 37.7968 21.3824 37.9341 21.7423 37.9341C22.1022 37.9341 22.4622 37.7968 22.7367 37.5222C23.2858 36.9731 23.2858 36.0826 22.7367 35.5333L22.2985 35.0951L22.7367 34.657C23.2858 34.1078 23.2858 33.2174 22.7367 32.6681C22.1875 32.1191 21.2971 32.1191 20.7478 32.6681L20.3096 33.1063L19.8714 32.6681C19.3223 32.1191 18.4318 32.1191 17.8826 32.6681C17.3334 33.2172 17.3334 34.1077 17.8826 34.657L18.3207 35.0951L17.8826 35.5333C17.3338 36.0825 17.3338 36.9731 17.8828 37.5222Z" fill="white"/>
<path id="Vector_4" d="M28.3455 37.5221C28.6201 37.7967 28.98 37.934 29.3399 37.934C29.6997 37.934 30.0597 37.7966 30.3342 37.5221L30.7724 37.0839L31.2106 37.5221C31.4852 37.7967 31.8451 37.934 32.205 37.934C32.5648 37.934 32.9248 37.7966 33.1993 37.5221C33.7485 36.9729 33.7486 36.0825 33.1993 35.5334L32.7611 35.0952L33.1993 34.657C33.7485 34.1078 33.7485 33.2174 33.1993 32.6683C32.6502 32.1191 31.7597 32.1191 31.2106 32.6683L30.7724 33.1064L30.3342 32.6683C29.7851 32.119 28.8946 32.1191 28.3455 32.6683C27.7964 33.2174 27.7962 34.1078 28.3455 34.657L28.7837 35.0952L28.3455 35.5334C27.7964 36.0825 27.7964 36.9729 28.3455 37.5221Z" fill="white"/>
<path id="Vector_5" d="M38.8084 37.5221C39.083 37.7967 39.4429 37.934 39.8028 37.934C40.1626 37.934 40.5226 37.7966 40.7971 37.5221L41.2353 37.0839L41.6735 37.5221C41.9481 37.7967 42.308 37.934 42.6678 37.934C43.0277 37.934 43.3877 37.7966 43.6622 37.5221C44.2113 36.9729 44.2115 36.0825 43.6622 35.5334L43.224 35.0952L43.6622 34.657C44.2113 34.1078 44.2113 33.2174 43.6622 32.6683C43.1131 32.1191 42.2226 32.1191 41.6735 32.6683L41.2353 33.1064L40.7971 32.6683C40.2478 32.119 39.3575 32.1191 38.8084 32.6683C38.2593 33.2174 38.2591 34.1078 38.8084 34.657L39.2466 35.0952L38.8084 35.5334C38.2591 36.0825 38.2593 36.9729 38.8084 37.5221Z" fill="white"/>
<path id="Vector_6" d="M49.2696 37.5222C49.5442 37.7968 49.9041 37.9341 50.2639 37.9341C50.6238 37.9341 50.9838 37.7968 51.2583 37.5222L51.6965 37.084L52.1347 37.5222C52.4093 37.7968 52.7691 37.9341 53.129 37.9341C53.4889 37.9341 53.8489 37.7968 54.1234 37.5222C54.6725 36.9731 54.6725 36.0826 54.1234 35.5333L53.6852 35.0951L54.1234 34.657C54.6725 34.1078 54.6725 33.2174 54.1234 32.6681C53.5742 32.1191 52.6838 32.1191 52.1345 32.6681L51.6963 33.1063L51.2581 32.6681C50.709 32.1191 49.8186 32.1191 49.2693 32.6681C48.7201 33.2172 48.7201 34.1077 49.2693 34.657L49.7075 35.0951L49.2693 35.5333C48.7204 36.0825 48.7204 36.9731 49.2696 37.5222Z" fill="white"/>
<path id="Vector_7" d="M47.0277 7.09312C46.82 6.54792 46.2971 6.1875 45.7136 6.1875H26.2946C25.7112 6.1875 25.1882 6.54792 24.9805 7.09312C23.5537 10.8382 20.891 14.1102 17.4826 16.3063C16.8297 16.7269 16.6416 17.5972 17.0622 18.25C17.4829 18.9031 18.3533 19.0911 19.0059 18.6705C22.6378 16.3305 25.533 12.9217 27.2394 9H44.7688C46.4753 12.9217 49.3705 16.3305 53.0024 18.6705C53.238 18.8224 53.5019 18.8948 53.7628 18.8948C54.2249 18.8948 54.6774 18.6673 54.9463 18.25C55.3669 17.5971 55.1786 16.7269 54.5258 16.3063C51.1173 14.1103 48.4545 10.8382 47.0277 7.09312Z" fill="#313131"/>
<path id="Vector_8" d="M53.5294 52.07C52.8046 53.1015 51.8122 53.9592 50.6594 54.5501L36.005 62.0611L21.3508 54.5501C20.1979 53.9592 19.2055 53.1016 18.4808 52.07C18.0344 51.4347 17.1573 51.2814 16.5217 51.7279C15.8862 52.1744 15.7331 53.0514 16.1796 53.6869C17.1658 55.0906 18.5104 56.2546 20.068 57.0529L35.3638 64.8928C35.5651 64.996 35.7852 65.0476 36.0052 65.0476C36.2251 65.0476 36.4452 64.996 36.6465 64.8928L51.9425 57.0529C53.5 56.2546 54.8445 55.0906 55.8307 53.6869C56.2772 53.0514 56.1241 52.1744 55.4886 51.7279C54.8528 51.2814 53.9758 51.4347 53.5294 52.07Z" fill="#313131"/>
</g>
</g>
</g>
<defs>
<clipPath id="clip0_6016_14468">
<rect width="72" height="72" fill="white"/>
</clipPath>
</defs>
</svg>
