<svg width="88" height="88" viewBox="0 0 88 88" fill="none" xmlns="http://www.w3.org/2000/svg">
<g id="safe 1" clip-path="url(#clip0_6432_26406)">
<g id="Group">
<g id="Group_2">
<path id="XMLID_143_" d="M44.0839 78.4996C29.5039 73.7372 19.4746 60.042 19.4746 44.5711V24.2486C28.995 22.9026 37.2318 18.9757 44.0839 12.5171C50.9358 18.9757 59.1726 22.9027 68.6932 24.2486V44.5711C68.6932 60.0421 58.664 73.7371 44.0839 78.4996Z" fill="#E27B3B"/>
</g>
<g id="Group_3">
<path id="Vector" d="M39.2782 44.9132C38.6181 44.2533 37.5478 44.2533 36.8876 44.9132C36.2276 45.5732 36.2276 46.6435 36.8876 47.3037L40.4879 50.904C41.1481 51.5641 42.2183 51.5641 42.8783 50.904L51.279 42.5035C51.9391 41.8435 51.9391 40.7732 51.279 40.113C50.619 39.4534 49.549 39.4531 48.8884 40.113L41.6831 47.3183L39.2782 44.9132Z" fill="white"/>
<path id="Vector_2" d="M25.4219 45.5084C25.4219 55.7987 33.7937 64.1705 44.084 64.1705C54.3744 64.1705 62.7462 55.7987 62.7462 45.5084C62.7462 35.218 54.3744 26.8462 44.084 26.8462C33.7937 26.8462 25.4219 35.218 25.4219 45.5084ZM59.3656 45.5084C59.3656 53.9348 52.5103 60.7899 44.084 60.7899C35.6578 60.7899 28.8025 53.9346 28.8025 45.5084C28.8025 37.0819 35.6578 30.2268 44.084 30.2268C52.5103 30.2268 59.3656 37.0821 59.3656 45.5084Z" fill="white"/>
<path id="Vector_3" d="M75.5111 16.2874C62.8544 16.0712 53.012 11.1966 45.4211 1.38497C44.7455 0.511424 43.4236 0.510579 42.7474 1.38497C35.1568 11.1966 25.3142 16.0712 12.6575 16.2874C11.7354 16.3033 10.9961 17.0553 10.9961 17.9775V44.5712C10.9961 54.3632 14.1424 63.6485 20.0951 71.4235C26.0476 79.1985 34.1906 84.6585 43.6434 87.2132C43.9248 87.2894 44.2302 87.2931 44.5254 87.2132C53.9783 84.6585 62.1211 79.1985 68.0737 71.4235C74.0262 63.6485 77.1725 54.3631 77.1725 44.5712V17.9775C77.1727 17.0553 76.4333 16.3033 75.5111 16.2874ZM73.7921 44.5712C73.7921 62.8066 61.5995 78.8833 44.0844 83.828C26.5692 78.8833 14.3767 62.8066 14.3767 44.5712V19.6139C26.6127 19.0269 36.3633 14.2677 44.0844 5.10935C51.8055 14.2677 61.5561 19.0269 73.7921 19.6139V44.5712Z" fill="#313131"/>
</g>
</g>
</g>
<defs>
<clipPath id="clip0_6432_26406">
<rect width="86.5424" height="86.5424" fill="white" transform="translate(0.8125 0.729492)"/>
</clipPath>
</defs>
</svg>
