<svg width="25" height="24" viewBox="0 0 25 24" fill="none" xmlns="http://www.w3.org/2000/svg">
<g id="scan-qr">
<path id="scan-qr_2" d="M22.25 4.5V8C22.25 8.414 21.914 8.75 21.5 8.75C21.086 8.75 20.75 8.414 20.75 8V4.5C20.75 3.911 20.589 3.75 20 3.75H16.5C16.086 3.75 15.75 3.414 15.75 3C15.75 2.586 16.086 2.25 16.5 2.25H20C21.409 2.25 22.25 3.091 22.25 4.5ZM3.5 8.75C3.914 8.75 4.25 8.414 4.25 8V4.5C4.25 3.911 4.411 3.75 5 3.75H8.5C8.914 3.75 9.25 3.414 9.25 3C9.25 2.586 8.914 2.25 8.5 2.25H5C3.591 2.25 2.75 3.091 2.75 4.5V8C2.75 8.414 3.086 8.75 3.5 8.75ZM8.5 20.25H5C4.411 20.25 4.25 20.089 4.25 19.5V16C4.25 15.586 3.914 15.25 3.5 15.25C3.086 15.25 2.75 15.586 2.75 16V19.5C2.75 20.909 3.591 21.75 5 21.75H8.5C8.914 21.75 9.25 21.414 9.25 21C9.25 20.586 8.914 20.25 8.5 20.25ZM21.5 15.25C21.086 15.25 20.75 15.586 20.75 16V19.5C20.75 20.089 20.589 20.25 20 20.25H16.5C16.086 20.25 15.75 20.586 15.75 21C15.75 21.414 16.086 21.75 16.5 21.75H20C21.409 21.75 22.25 20.909 22.25 19.5V16C22.25 15.586 21.914 15.25 21.5 15.25ZM12.75 10.25V7.75C12.75 6.839 13.339 6.25 14.25 6.25H16.75C17.661 6.25 18.25 6.839 18.25 7.75V10.25C18.25 11.161 17.661 11.75 16.75 11.75H14.25C13.339 11.75 12.75 11.161 12.75 10.25ZM14.25 10.25H16.7419L16.75 7.758L14.2581 7.75L14.25 10.25ZM12.25 7.75V10.25C12.25 11.161 11.661 11.75 10.75 11.75H8.25C7.339 11.75 6.75 11.161 6.75 10.25V7.75C6.75 6.839 7.339 6.25 8.25 6.25H10.75C11.661 6.25 12.25 6.839 12.25 7.75ZM10.75 7.758L8.25806 7.75L8.25 10.25H10.7419L10.75 7.758ZM16.75 17.75H14.25C13.339 17.75 12.75 17.161 12.75 16.25V13.75C12.75 12.839 13.339 12.25 14.25 12.25H16.75C17.661 12.25 18.25 12.839 18.25 13.75V16.25C18.25 17.161 17.661 17.75 16.75 17.75ZM16.7419 16.25L16.75 13.758L14.2581 13.75L14.25 16.25H16.7419ZM12.25 13.75V16.25C12.25 17.161 11.661 17.75 10.75 17.75H8.25C7.339 17.75 6.75 17.161 6.75 16.25V13.75C6.75 12.839 7.339 12.25 8.25 12.25H10.75C11.661 12.25 12.25 12.839 12.25 13.75ZM10.75 13.758L8.25806 13.75L8.25 16.25H10.7419L10.75 13.758Z" fill="white"/>
</g>
</svg>
