<svg width="21" height="22" viewBox="0 0 21 22" fill="none" xmlns="http://www.w3.org/2000/svg">
<g id="snap 1" clip-path="url(#clip0_4830_9785)">
<path id="Vector" d="M10.7565 5.0737C10.4144 4.73158 10.4144 4.17858 10.7565 3.83645L12.5065 2.08645C12.8486 1.74433 13.4016 1.74433 13.7437 2.08645C14.0859 2.42858 14.0859 2.98158 13.7437 3.3237L11.9937 5.0737C11.8231 5.24433 11.5991 5.33008 11.3751 5.33008C11.1511 5.33008 10.9271 5.24433 10.7565 5.0737ZM3.75649 5.0737C3.92712 5.24433 4.15112 5.33008 4.37512 5.33008C4.59912 5.33008 4.82312 5.24433 4.99374 5.0737C5.33587 4.73158 5.33587 4.17858 4.99374 3.83645L3.24374 2.08645C2.90162 1.74433 2.34862 1.74433 2.00649 2.08645C1.66437 2.42858 1.66437 2.98158 2.00649 3.3237L3.75649 5.0737ZM7.87512 4.45508C8.35899 4.45508 8.75012 4.06308 8.75012 3.58008V0.955078C8.75012 0.472078 8.35899 0.0800781 7.87512 0.0800781C7.39124 0.0800781 7.00012 0.472078 7.00012 0.955078V3.58008C7.00012 4.06308 7.39124 4.45508 7.87512 4.45508ZM18.7645 4.66158C18.3165 4.04033 17.627 3.6492 16.8719 3.58795C16.108 3.52145 15.3739 3.7997 14.8375 4.33608L7.93812 11.2591L7.78324 9.55808C7.76049 8.86945 7.47087 8.23158 6.96687 7.7617C6.46374 7.29095 5.78387 7.05033 5.12062 7.0687C3.69874 7.11683 2.57962 8.31208 2.62512 9.70508V17.805C2.62512 18.2722 2.44224 18.7115 2.11149 19.0422L1.56812 19.5865C1.22599 19.9286 1.22599 20.4825 1.56812 20.8246C1.73874 20.9952 1.96274 21.0801 2.18674 21.0801C2.41074 21.0801 2.63474 20.9943 2.80537 20.8237L3.34874 20.2795C4.01024 19.6188 4.37424 18.7395 4.37424 17.805V9.6762C4.35937 9.21858 4.72074 8.8327 5.17837 8.81783C5.41724 8.8012 5.61062 8.88958 5.77249 9.04008C5.93437 9.19145 6.02712 9.3962 6.03762 9.66658L6.22924 11.7928C6.28437 12.4088 6.67987 12.9216 7.26087 13.1316C7.84099 13.3416 8.47362 13.2007 8.91024 12.7632L16.0756 5.57333C16.2471 5.40095 16.4781 5.31083 16.731 5.3327C16.9777 5.35283 17.1956 5.47795 17.3444 5.68445C17.5719 6.00033 17.5019 6.49558 17.1851 6.81233L13.0289 10.9686C12.7436 11.2538 12.6902 11.6975 12.9002 12.0413L15.2627 15.929C16.0266 17.0743 15.8744 18.6126 14.9014 19.5865C14.5592 19.9286 14.5592 20.4825 14.9014 20.8237C15.2435 21.1658 15.7965 21.1658 16.1386 20.8237C17.6996 19.2618 17.9437 16.7952 16.7389 14.9901L14.7526 11.7202L18.4224 8.04958C19.3446 7.1282 19.4916 5.67133 18.7645 4.66158Z" fill="#E27B3B"/>
</g>
<defs>
<clipPath id="clip0_4830_9785">
<rect width="21" height="21" fill="white" transform="translate(0 0.0800781)"/>
</clipPath>
</defs>
</svg>
