<svg width="22" height="20" viewBox="0 0 22 20" fill="none" xmlns="http://www.w3.org/2000/svg">
<g id="triangle-exclamation">
<path id="triangle-exclamation_2" d="M17.1257 18.9585H4.86324C3.54481 18.9585 2.35372 18.3452 1.67572 17.3177C1.00047 16.2927 0.967358 15.0519 1.5858 13.9986L7.63828 3.70276C8.30986 2.55859 9.5652 1.87598 10.9927 1.87598C12.4201 1.87598 13.6752 2.55859 14.3468 3.70276L20.3993 13.9986C21.0196 15.0519 20.9867 16.2927 20.3105 17.3177C19.6371 18.3452 18.445 18.9585 17.1257 18.9585ZM10.9944 3.12516C10.0819 3.12516 9.28103 3.56093 8.85132 4.29093L2.79885 14.5868C2.40946 15.2493 2.43146 16.0294 2.85566 16.6744C3.28262 17.3219 4.03313 17.7077 4.86413 17.7077H17.1268C17.9578 17.7077 18.709 17.321 19.135 16.6744C19.5592 16.0302 19.5794 15.2501 19.1909 14.5868L13.1385 4.29093C12.7079 3.56093 11.907 3.12516 10.9944 3.12516ZM11.6816 11.6668V8.3335C11.6816 7.9885 11.3738 7.7085 10.9944 7.7085C10.6151 7.7085 10.3073 7.9885 10.3073 8.3335V11.6668C10.3073 12.0118 10.6151 12.2918 10.9944 12.2918C11.3738 12.2918 11.6816 12.0118 11.6816 11.6668ZM11.929 14.1668C11.929 13.7068 11.5195 13.3335 11.0128 13.3335H11.0036C10.4979 13.3335 10.0919 13.7068 10.0919 14.1668C10.0919 14.6268 10.507 15.0002 11.0128 15.0002C11.5185 15.0002 11.929 14.6268 11.929 14.1668Z" fill="#CC4D4D"/>
</g>
</svg>
