<svg width="76" height="75" viewBox="0 0 76 75" fill="none" xmlns="http://www.w3.org/2000/svg">
<g id="wallet (4) 1" clip-path="url(#clip0_4976_7281)">
<g id="Group">
<g id="Group_2">
<path id="Vector" d="M52.6573 28.6454L57.0293 24.2769C55.6019 22.8507 55.6019 20.5382 57.0293 19.112L49.9937 12.082C48.5663 13.5082 46.2521 13.5082 44.8247 12.082L28.248 28.6455H52.6573V28.6454Z" fill="#8C508F"/>
</g>
<g id="Group_3">
<g id="Group_4">
<path id="Vector_2" d="M66.6536 58.1466V69.7939C66.6536 71.0491 65.6311 72.0703 64.3741 72.0703H15.4836V30.1082H64.3741C65.6309 30.1082 66.6536 31.1294 66.6536 32.3846V44.0319H69.5833V32.3846C69.5833 29.8551 67.7688 27.7411 65.3724 27.2744L67.8079 24.8407C68.6495 23.9999 69.113 22.8816 69.113 21.6923C69.113 20.5029 68.6495 19.3846 67.8079 18.5438L50.5517 1.30148C48.8151 -0.433826 45.9896 -0.433826 44.253 1.30148L18.3555 27.1784H8.70147C5.82912 27.1784 3.49219 29.5139 3.49219 32.3846V69.794C3.49219 72.6648 5.82898 75.0002 8.70147 75.0002H64.3741C67.2464 75.0002 69.5833 72.6648 69.5833 69.794V58.1467H66.6536V58.1466ZM46.3237 3.374C46.9183 2.77984 47.8862 2.77984 48.4808 3.374L65.737 20.6163C66.0247 20.9037 66.1832 21.2859 66.1832 21.6923C66.1832 22.0986 66.0247 22.4808 65.737 22.7682L61.3234 27.1783H22.5006L46.3237 3.374ZM12.5538 72.0703H8.70147C7.4446 72.0703 6.42196 71.0491 6.42196 69.7939V32.3846C6.42196 31.1294 7.4446 30.1082 8.70147 30.1082H12.5538V72.0703Z" fill="#3B3B3E"/>
</g>
</g>
<path id="Vector_3" d="M72.5082 59.6134H55.5438C50.8371 59.6134 47.0215 55.7978 47.0215 51.0911C47.0215 46.3844 50.8371 42.5688 55.5438 42.5688H72.5082V59.6134Z" fill="#8C508F"/>
<g id="Group_5">
<path id="Vector_4" d="M56.5302 55.9569C53.8449 55.9569 51.6602 53.7734 51.6602 51.0895C51.6602 48.4056 53.8449 46.2222 56.5302 46.2222C59.2156 46.2222 61.4003 48.4057 61.4003 51.0895C61.4003 53.7734 59.2156 55.9569 56.5302 55.9569ZM56.5302 49.1518C55.4602 49.1518 54.5899 50.0211 54.5899 51.0894C54.5899 52.1579 55.4602 53.027 56.5302 53.027C57.6001 53.027 58.4706 52.1577 58.4706 51.0894C58.4706 50.0211 57.6001 49.1518 56.5302 49.1518Z" fill="white"/>
</g>
</g>
</g>
<defs>
<clipPath id="clip0_4976_7281">
<rect width="75" height="75" fill="white" transform="translate(0.5)"/>
</clipPath>
</defs>
</svg>
